<svg width="125" height="55" viewBox="0 0 125 55" fill="none" xmlns="http://www.w3.org/2000/svg">
<path d="M8.85793 24.3963L21.8379 37.3763C22.5208 38.0633 22.9042 38.9926 22.9042 39.9613C22.9042 40.9299 22.5208 41.8593 21.8379 42.5463C21.4971 42.8899 21.0915 43.1627 20.6447 43.3489C20.1979 43.535 19.7186 43.6309 19.2346 43.6309C18.7506 43.6309 18.2713 43.535 17.8245 43.3489C17.3777 43.1627 16.9721 42.8899 16.6313 42.5463L1.08459 26.9996C0.740921 26.6587 0.468143 26.2532 0.281991 25.8064C0.0958395 25.3596 -1.63923e-06 24.8803 -1.68154e-06 24.3963C-1.72386e-06 23.9122 0.0958393 23.433 0.281991 22.9861C0.468143 22.5393 0.740921 22.1338 1.08459 21.7929L16.6313 6.06293C16.9739 5.7231 17.3802 5.45424 17.8269 5.27177C18.2737 5.0893 18.752 4.9968 19.2346 4.99959C19.7171 4.9968 20.1955 5.0893 20.6422 5.27177C21.089 5.45424 21.4953 5.7231 21.8379 6.06293C22.5208 6.74992 22.9042 7.67925 22.9042 8.64793C22.9042 9.61661 22.5208 10.5459 21.8379 11.2329L8.85793 24.3963Z" fill="white"/>
<path d="M49.0743 24.23C50.4943 24.53 51.5743 25.14 52.3143 26.06C53.0743 26.96 53.4543 28.06 53.4543 29.36C53.4543 31.08 52.8143 32.45 51.5343 33.47C50.2743 34.49 48.4543 35 46.0743 35H39.2343V14.6H46.0743C48.1743 14.6 49.7743 15.06 50.8743 15.98C51.9943 16.88 52.5543 18.15 52.5543 19.79C52.5543 20.85 52.2543 21.78 51.6543 22.58C51.0543 23.38 50.1943 23.93 49.0743 24.23ZM41.9943 16.67V23.24H46.0743C47.2543 23.24 48.1643 22.95 48.8043 22.37C49.4643 21.79 49.7943 20.99 49.7943 19.97C49.7943 18.87 49.4743 18.05 48.8343 17.51C48.1943 16.95 47.2743 16.67 46.0743 16.67H41.9943ZM46.0743 32.93C47.5543 32.93 48.6943 32.6 49.4943 31.94C50.2943 31.26 50.6943 30.32 50.6943 29.12C50.6943 27.84 50.2943 26.89 49.4943 26.27C48.7143 25.63 47.5743 25.31 46.0743 25.31H41.9943V32.93H46.0743ZM71.7187 28.67H63.5287L61.2187 35H58.4587L66.3787 14.33H68.9287L76.8787 35H74.0587L71.7187 28.67ZM70.9687 26.6L67.6387 17.54L64.3087 26.6H70.9687ZM92.429 35.45C90.189 35.45 88.299 34.96 86.759 33.98C85.219 33 84.059 31.7 83.279 30.08C82.519 28.46 82.139 26.69 82.139 24.77C82.139 22.85 82.539 21.09 83.339 19.49C84.139 17.89 85.339 16.61 86.939 15.65C88.539 14.69 90.489 14.21 92.789 14.21C94.129 14.21 95.379 14.43 96.539 14.87C97.719 15.29 98.719 15.89 99.539 16.67L98.399 18.5C97.759 17.84 96.939 17.32 95.939 16.94C94.939 16.54 93.889 16.34 92.789 16.34C91.109 16.34 89.679 16.71 88.499 17.45C87.319 18.19 86.419 19.2 85.799 20.48C85.199 21.76 84.899 23.2 84.899 24.8C84.899 26.44 85.189 27.9 85.769 29.18C86.349 30.46 87.199 31.47 88.319 32.21C89.459 32.95 90.829 33.32 92.429 33.32C94.889 33.32 97.019 32.38 98.819 30.5L99.839 32.3C98.939 33.22 97.859 33.98 96.599 34.58C95.339 35.16 93.949 35.45 92.429 35.45ZM107.59 14.6H110.35V35H107.59V14.6ZM123.97 35H120.61L110.86 24.35V23.75L119.53 14.6H122.77L113.65 23.96L123.97 35Z" fill="white"/>
</svg>
