<svg width="25" height="45" viewBox="0 0 25 45" fill="none" xmlns="http://www.w3.org/2000/svg">
<path d="M10.5225 33.7021V23.4727C7.33236 22.5612 4.98861 21.1859 3.49121 19.3467C2.01009 17.4912 1.26953 15.2451 1.26953 12.6084C1.26953 9.93913 2.10775 7.70117 3.78418 5.89453C5.47689 4.07161 7.72298 3.02181 10.5225 2.74512V0.328125H14.0625V2.74512C16.6504 3.05436 18.7093 3.94141 20.2393 5.40625C21.7692 6.85482 22.7458 8.7998 23.1689 11.2412L16.9922 12.0469C16.6178 10.1263 15.6413 8.82422 14.0625 8.14062V17.6865C17.9688 18.7445 20.6299 20.1198 22.0459 21.8125C23.4619 23.4889 24.1699 25.6455 24.1699 28.2822C24.1699 31.2282 23.2747 33.7103 21.4844 35.7285C19.7103 37.7467 17.2363 38.9837 14.0625 39.4395V44.0049H10.5225V39.5615C7.70671 39.2197 5.41992 38.1699 3.66211 36.4121C1.9043 34.6543 0.78125 32.1722 0.292969 28.9658L6.66504 28.2822C6.92546 29.5843 7.41374 30.7074 8.12988 31.6514C8.84603 32.5954 9.64355 33.279 10.5225 33.7021ZM10.5225 8.06738C9.56217 8.3929 8.7972 8.94629 8.22754 9.72754C7.65788 10.5088 7.37305 11.3714 7.37305 12.3154C7.37305 13.1781 7.63346 13.9837 8.1543 14.7324C8.67513 15.4648 9.46452 16.0589 10.5225 16.5146V8.06738ZM14.0625 34.0439C15.2832 33.8161 16.276 33.2546 17.041 32.3594C17.806 31.4479 18.1885 30.3818 18.1885 29.1611C18.1885 28.0706 17.863 27.1348 17.2119 26.3535C16.5771 25.556 15.5273 24.9456 14.0625 24.5225V34.0439Z" fill="black"/>
</svg>
